<svg xmlns="http://www.w3.org/2000/svg" width="32" height="32" viewBox="0 0 2048 2048" xml:space="preserve">
  <defs>
    <style>
      .fil0 { fill: #212121; fill-rule: nonzero; }
    </style>
  </defs>
  <g id="Layer_x0020_1">
    <path class="fil0" d="M288 717.909h1472c17.673 0 32 14.328 32 32v538.15c0 17.674-14.327 32.002-32 32.002H288c-17.673 0-32-14.328-32-32.001V749.91c0-17.673 14.327-32.001 32-32.001zm1440 64.002H320v474.148h1408V781.91z"/>
    <path class="fil0" d="M428.92 733.835c54.467-111.488 139.328-205.403 243.788-270.927C774.644 398.965 895.081 361.992 1024 361.992c128.919 0 249.356 36.973 351.292 100.916 105.138 65.95 190.426 160.656 244.849 273.096l.07-.033c7.698 15.908 1.043 35.046-14.866 42.744a31.874 31.874 0 0 1-14.527 3.196H456.598c-17.673 0-32.001-14.328-32.001-32 0-5.86 1.577-11.351 4.326-16.076z"/>
    <path class="fil0" d="M1624.15 1303.5c-53.344 114.339-138.475 210.957-244.075 278.503-102.93 65.837-225.122 104.006-356.075 104.006-130.954 0-253.146-38.169-356.075-104.006-106.228-67.948-191.749-165.311-245.028-280.542l-.06.027c-7.415-16.04-.423-35.059 15.617-42.475a31.867 31.867 0 0 1 14.004-2.955h1143.66c17.672 0 32 14.328 32 32.001 0 5.6-1.44 10.863-3.967 15.44z"/>
    <path class="fil0" d="M993.298 1652.71c0 17.673 14.328 32 32 32 17.674 0 32.002-14.327 32.002-32v-364.648c0-17.673-14.328-32-32.001-32s-32.001 14.327-32.001 32v364.648z"/>
  </g>
</svg>
