<svg width="110" height="33" viewBox="0 0 110 33" fill="none" xmlns="http://www.w3.org/2000/svg">
<mask id="path-1-outside-1_12_49" maskUnits="userSpaceOnUse" x="0" y="0" width="110" height="33" fill="black">
<rect fill="white" width="110" height="33"/>
<path d="M4.4 16.24C5.28 16.6933 5.96 17.3867 6.44 18.32C6.94667 19.2267 7.2 20.3867 7.2 21.8V27.04C7.2 27.9733 7.37333 28.6267 7.72 29C8.09333 29.4 8.66667 29.6133 9.44 29.64C9.49333 29.8 9.52 29.9467 9.52 30.08C9.54667 30.24 9.56 30.4 9.56 30.56C9.56 30.9333 9.44 31.24 9.2 31.48C8.96 31.72 8.6 31.84 8.12 31.84C7 31.84 6.08 31.44 5.36 30.64C4.66667 29.84 4.32 28.64 4.32 27.04V22.12C4.32 20.7067 4.06667 19.6267 3.56 18.88C3.05333 18.1067 2.29333 17.64 1.28 17.48C1.17333 17.3467 1.09333 17.16 1.04 16.92C1.01333 16.6533 1 16.4267 1 16.24C1 16.0533 1.02667 15.84 1.08 15.6C1.13333 15.36 1.2 15.16 1.28 15C2.29333 14.84 3.05333 14.3867 3.56 13.64C4.06667 12.8667 4.32 11.7867 4.32 10.4V5.76C4.32 4.16 4.66667 2.97333 5.36 2.2C6.08 1.4 7 1 8.12 1C8.6 1 8.96 1.12 9.2 1.36C9.44 1.57333 9.56 1.88 9.56 2.28C9.56 2.44 9.54667 2.6 9.52 2.76C9.52 2.89333 9.49333 3.04 9.44 3.2C8.66667 3.2 8.09333 3.4 7.72 3.8C7.37333 4.17333 7.2 4.84 7.2 5.8V10.68C7.2 12.0933 6.94667 13.2667 6.44 14.2C5.96 15.1067 5.28 15.7867 4.4 16.24Z"/>
<path d="M22.69 5.44H22.53C22.13 6.56 21.65 7.89333 21.09 9.44C20.5567 10.9867 19.9967 12.5867 19.41 14.24C18.85 15.8667 18.3167 17.3867 17.81 18.8L17.61 19.4C17.45 19.88 17.25 20.48 17.01 21.2C16.77 21.92 16.5167 22.68 16.25 23.48C15.9833 24.2533 15.73 24.9867 15.49 25.68C15.25 26.3467 15.0633 26.8933 14.93 27.32C14.7433 27.4 14.5433 27.4533 14.33 27.48C14.1433 27.5333 13.9033 27.56 13.61 27.56C13.1833 27.56 12.7967 27.4533 12.45 27.24C12.13 27 11.97 26.6267 11.97 26.12C11.97 25.88 12.01 25.64 12.09 25.4C12.17 25.1333 12.2633 24.8533 12.37 24.56C12.69 23.6533 13.0767 22.5467 13.53 21.24C14.01 19.9333 14.53 18.5067 15.09 16.96C15.65 15.4133 16.2367 13.8267 16.85 12.2C17.4633 10.5733 18.0633 8.98667 18.65 7.44C19.2367 5.89333 19.7833 4.48 20.29 3.2C20.5033 3.09333 20.8233 2.98667 21.25 2.88C21.6767 2.77333 22.1167 2.72 22.57 2.72C23.1033 2.72 23.61 2.8 24.09 2.96C24.5967 3.12 24.9167 3.38667 25.05 3.76C25.69 5.30667 26.37 7.06667 27.09 9.04C27.8367 10.9867 28.5833 13.0267 29.33 15.16C30.0767 17.2667 30.7833 19.32 31.45 21.32C32.1433 23.32 32.7567 25.1333 33.29 26.76C33.1033 27 32.85 27.1867 32.53 27.32C32.2367 27.48 31.9033 27.56 31.53 27.56C31.0233 27.56 30.6367 27.4533 30.37 27.24C30.1033 27 29.8767 26.6133 29.69 26.08L27.49 19.56L27.17 18.44C26.6367 16.8133 26.0767 15.1733 25.49 13.52C24.93 11.8667 24.3967 10.3333 23.89 8.92C23.41 7.50667 23.01 6.34667 22.69 5.44ZM16.05 20.76L17.09 18.08H28.25L28.89 20.76H16.05Z"/>
<path d="M38.0019 12.6H41.2419V26.92C41.1352 26.9467 40.9352 27.0133 40.6419 27.12C40.3485 27.2 40.0552 27.24 39.7619 27.24C39.2285 27.24 38.8019 27.08 38.4819 26.76C38.1619 26.4133 38.0019 25.9867 38.0019 25.48V12.6ZM41.2419 17.32L38.0019 17.28V4.68C38.0019 4.14667 38.1619 3.72 38.4819 3.4C38.8019 3.08 39.2285 2.92 39.7619 2.92C40.0552 2.92 40.3485 2.96 40.6419 3.04C40.9352 3.12 41.1352 3.18667 41.2419 3.24V17.32ZM39.7619 16.12V13.4H51.8019C51.8819 13.5067 51.9619 13.68 52.0419 13.92C52.1219 14.16 52.1619 14.4133 52.1619 14.68C52.1619 15.1067 52.0552 15.4533 51.8419 15.72C51.6285 15.9867 51.3219 16.12 50.9219 16.12H39.7619ZM39.7619 27.24V24.52H53.2419C53.3219 24.6267 53.4019 24.8 53.4819 25.04C53.5619 25.2533 53.6019 25.5067 53.6019 25.8C53.6019 26.2267 53.4952 26.5733 53.2819 26.84C53.0685 27.1067 52.7619 27.24 52.3619 27.24H39.7619ZM39.7619 5.68V2.92H53.0419C53.1219 3.02667 53.2019 3.2 53.2819 3.44C53.3619 3.68 53.4019 3.93333 53.4019 4.2C53.4019 4.62667 53.2952 4.98667 53.0819 5.28C52.8685 5.54667 52.5619 5.68 52.1619 5.68H39.7619Z"/>
<path d="M59.2519 13.04H62.5319V26.92L61.0119 27.24C60.5052 27.24 60.0785 27.08 59.7319 26.76C59.4119 26.4133 59.2519 25.9867 59.2519 25.48V13.04ZM61.0119 27.24V24.44H74.0119C74.1452 24.5467 74.2519 24.72 74.3319 24.96C74.4119 25.2 74.4519 25.4667 74.4519 25.76C74.4519 26.2133 74.3319 26.5733 74.0919 26.84C73.8519 27.1067 73.5319 27.24 73.1319 27.24H61.0119ZM62.5319 15.44H59.2519V3C59.3852 2.94667 59.5852 2.89333 59.8519 2.84C60.1452 2.76 60.4519 2.72 60.7719 2.72C61.3585 2.72 61.7985 2.84 62.0919 3.08C62.3852 3.29333 62.5319 3.66667 62.5319 4.2V15.44Z"/>
<path d="M105.6 16.24C104.72 15.7867 104.027 15.1067 103.52 14.2C103.04 13.2667 102.8 12.0933 102.8 10.68V5.8C102.8 4.84 102.613 4.17333 102.24 3.8C101.893 3.4 101.333 3.2 100.56 3.2C100.533 3.04 100.507 2.89333 100.48 2.76C100.453 2.6 100.44 2.44 100.44 2.28C100.44 1.88 100.56 1.57333 100.8 1.36C101.04 1.12 101.4 1 101.88 1C103 1 103.907 1.4 104.6 2.2C105.32 2.97333 105.68 4.16 105.68 5.76V10.4C105.68 11.7867 105.933 12.8667 106.44 13.64C106.947 14.3867 107.707 14.84 108.72 15C108.8 15.16 108.867 15.36 108.92 15.6C108.973 15.84 109 16.0533 109 16.24C109 16.4267 108.973 16.6533 108.92 16.92C108.893 17.16 108.827 17.3467 108.72 17.48C107.707 17.64 106.947 18.1067 106.44 18.88C105.933 19.6267 105.68 20.7067 105.68 22.12V27.04C105.68 28.64 105.32 29.84 104.6 30.64C103.907 31.44 103 31.84 101.88 31.84C101.4 31.84 101.04 31.72 100.8 31.48C100.56 31.24 100.44 30.9333 100.44 30.56C100.44 30.4 100.453 30.24 100.48 30.08C100.507 29.9467 100.533 29.8 100.56 29.64C101.333 29.6133 101.893 29.4 102.24 29C102.613 28.6267 102.8 27.9733 102.8 27.04V21.8C102.8 20.3867 103.04 19.2267 103.52 18.32C104.027 17.3867 104.72 16.6933 105.6 16.24Z"/>
</mask>
<path d="M4.4 16.24C5.28 16.6933 5.96 17.3867 6.44 18.32C6.94667 19.2267 7.2 20.3867 7.2 21.8V27.04C7.2 27.9733 7.37333 28.6267 7.72 29C8.09333 29.4 8.66667 29.6133 9.44 29.64C9.49333 29.8 9.52 29.9467 9.52 30.08C9.54667 30.24 9.56 30.4 9.56 30.56C9.56 30.9333 9.44 31.24 9.2 31.48C8.96 31.72 8.6 31.84 8.12 31.84C7 31.84 6.08 31.44 5.36 30.64C4.66667 29.84 4.32 28.64 4.32 27.04V22.12C4.32 20.7067 4.06667 19.6267 3.56 18.88C3.05333 18.1067 2.29333 17.64 1.28 17.48C1.17333 17.3467 1.09333 17.16 1.04 16.92C1.01333 16.6533 1 16.4267 1 16.24C1 16.0533 1.02667 15.84 1.08 15.6C1.13333 15.36 1.2 15.16 1.28 15C2.29333 14.84 3.05333 14.3867 3.56 13.64C4.06667 12.8667 4.32 11.7867 4.32 10.4V5.76C4.32 4.16 4.66667 2.97333 5.36 2.2C6.08 1.4 7 1 8.12 1C8.6 1 8.96 1.12 9.2 1.36C9.44 1.57333 9.56 1.88 9.56 2.28C9.56 2.44 9.54667 2.6 9.52 2.76C9.52 2.89333 9.49333 3.04 9.44 3.2C8.66667 3.2 8.09333 3.4 7.72 3.8C7.37333 4.17333 7.2 4.84 7.2 5.8V10.68C7.2 12.0933 6.94667 13.2667 6.44 14.2C5.96 15.1067 5.28 15.7867 4.4 16.24Z" fill="#1B4D3E"/>
<path d="M22.69 5.44H22.53C22.13 6.56 21.65 7.89333 21.09 9.44C20.5567 10.9867 19.9967 12.5867 19.41 14.24C18.85 15.8667 18.3167 17.3867 17.81 18.8L17.61 19.4C17.45 19.88 17.25 20.48 17.01 21.2C16.77 21.92 16.5167 22.68 16.25 23.48C15.9833 24.2533 15.73 24.9867 15.49 25.68C15.25 26.3467 15.0633 26.8933 14.93 27.32C14.7433 27.4 14.5433 27.4533 14.33 27.48C14.1433 27.5333 13.9033 27.56 13.61 27.56C13.1833 27.56 12.7967 27.4533 12.45 27.24C12.13 27 11.97 26.6267 11.97 26.12C11.97 25.88 12.01 25.64 12.09 25.4C12.17 25.1333 12.2633 24.8533 12.37 24.56C12.69 23.6533 13.0767 22.5467 13.53 21.24C14.01 19.9333 14.53 18.5067 15.09 16.96C15.65 15.4133 16.2367 13.8267 16.85 12.2C17.4633 10.5733 18.0633 8.98667 18.65 7.44C19.2367 5.89333 19.7833 4.48 20.29 3.2C20.5033 3.09333 20.8233 2.98667 21.25 2.88C21.6767 2.77333 22.1167 2.72 22.57 2.72C23.1033 2.72 23.61 2.8 24.09 2.96C24.5967 3.12 24.9167 3.38667 25.05 3.76C25.69 5.30667 26.37 7.06667 27.09 9.04C27.8367 10.9867 28.5833 13.0267 29.33 15.16C30.0767 17.2667 30.7833 19.32 31.45 21.32C32.1433 23.32 32.7567 25.1333 33.29 26.76C33.1033 27 32.85 27.1867 32.53 27.32C32.2367 27.48 31.9033 27.56 31.53 27.56C31.0233 27.56 30.6367 27.4533 30.37 27.24C30.1033 27 29.8767 26.6133 29.69 26.08L27.49 19.56L27.17 18.44C26.6367 16.8133 26.0767 15.1733 25.49 13.52C24.93 11.8667 24.3967 10.3333 23.89 8.92C23.41 7.50667 23.01 6.34667 22.69 5.44ZM16.05 20.76L17.09 18.08H28.25L28.89 20.76H16.05Z" fill="#1B4D3E"/>
<path d="M38.0019 12.6H41.2419V26.92C41.1352 26.9467 40.9352 27.0133 40.6419 27.12C40.3485 27.2 40.0552 27.24 39.7619 27.24C39.2285 27.24 38.8019 27.08 38.4819 26.76C38.1619 26.4133 38.0019 25.9867 38.0019 25.48V12.6ZM41.2419 17.32L38.0019 17.28V4.68C38.0019 4.14667 38.1619 3.72 38.4819 3.4C38.8019 3.08 39.2285 2.92 39.7619 2.92C40.0552 2.92 40.3485 2.96 40.6419 3.04C40.9352 3.12 41.1352 3.18667 41.2419 3.24V17.32ZM39.7619 16.12V13.4H51.8019C51.8819 13.5067 51.9619 13.68 52.0419 13.92C52.1219 14.16 52.1619 14.4133 52.1619 14.68C52.1619 15.1067 52.0552 15.4533 51.8419 15.72C51.6285 15.9867 51.3219 16.12 50.9219 16.12H39.7619ZM39.7619 27.24V24.52H53.2419C53.3219 24.6267 53.4019 24.8 53.4819 25.04C53.5619 25.2533 53.6019 25.5067 53.6019 25.8C53.6019 26.2267 53.4952 26.5733 53.2819 26.84C53.0685 27.1067 52.7619 27.24 52.3619 27.24H39.7619ZM39.7619 5.68V2.92H53.0419C53.1219 3.02667 53.2019 3.2 53.2819 3.44C53.3619 3.68 53.4019 3.93333 53.4019 4.2C53.4019 4.62667 53.2952 4.98667 53.0819 5.28C52.8685 5.54667 52.5619 5.68 52.1619 5.68H39.7619Z" fill="#1B4D3E"/>
<path d="M59.2519 13.04H62.5319V26.92L61.0119 27.24C60.5052 27.24 60.0785 27.08 59.7319 26.76C59.4119 26.4133 59.2519 25.9867 59.2519 25.48V13.04ZM61.0119 27.24V24.44H74.0119C74.1452 24.5467 74.2519 24.72 74.3319 24.96C74.4119 25.2 74.4519 25.4667 74.4519 25.76C74.4519 26.2133 74.3319 26.5733 74.0919 26.84C73.8519 27.1067 73.5319 27.24 73.1319 27.24H61.0119ZM62.5319 15.44H59.2519V3C59.3852 2.94667 59.5852 2.89333 59.8519 2.84C60.1452 2.76 60.4519 2.72 60.7719 2.72C61.3585 2.72 61.7985 2.84 62.0919 3.08C62.3852 3.29333 62.5319 3.66667 62.5319 4.2V15.44Z" fill="#1B4D3E"/>
<path d="M105.6 16.24C104.72 15.7867 104.027 15.1067 103.52 14.2C103.04 13.2667 102.8 12.0933 102.8 10.68V5.8C102.8 4.84 102.613 4.17333 102.24 3.8C101.893 3.4 101.333 3.2 100.56 3.2C100.533 3.04 100.507 2.89333 100.48 2.76C100.453 2.6 100.44 2.44 100.44 2.28C100.44 1.88 100.56 1.57333 100.8 1.36C101.04 1.12 101.4 1 101.88 1C103 1 103.907 1.4 104.6 2.2C105.32 2.97333 105.68 4.16 105.68 5.76V10.4C105.68 11.7867 105.933 12.8667 106.44 13.64C106.947 14.3867 107.707 14.84 108.72 15C108.8 15.16 108.867 15.36 108.92 15.6C108.973 15.84 109 16.0533 109 16.24C109 16.4267 108.973 16.6533 108.92 16.92C108.893 17.16 108.827 17.3467 108.72 17.48C107.707 17.64 106.947 18.1067 106.44 18.88C105.933 19.6267 105.68 20.7067 105.68 22.12V27.04C105.68 28.64 105.32 29.84 104.6 30.64C103.907 31.44 103 31.84 101.88 31.84C101.4 31.84 101.04 31.72 100.8 31.48C100.56 31.24 100.44 30.9333 100.44 30.56C100.44 30.4 100.453 30.24 100.48 30.08C100.507 29.9467 100.533 29.8 100.56 29.64C101.333 29.6133 101.893 29.4 102.24 29C102.613 28.6267 102.8 27.9733 102.8 27.04V21.8C102.8 20.3867 103.04 19.2267 103.52 18.32C104.027 17.3867 104.72 16.6933 105.6 16.24Z" fill="#1B4D3E"/>
<path d="M4.4 16.24L4.17102 15.7955L3.30819 16.24L4.17102 16.6845L4.4 16.24ZM6.44 18.32L5.99536 18.5487L5.99931 18.5564L6.00353 18.5639L6.44 18.32ZM7.72 29L7.3536 29.3402L7.35447 29.3412L7.72 29ZM9.44 29.64L9.91434 29.4819L9.80447 29.1523L9.45723 29.1403L9.44 29.64ZM9.52 30.08H9.02V30.1214L9.0268 30.1622L9.52 30.08ZM9.2 31.48L9.55355 31.8336L9.55355 31.8336L9.2 31.48ZM5.36 30.64L4.98209 30.9675L4.98835 30.9745L5.36 30.64ZM3.56 18.88L3.14171 19.1541L3.14626 19.1608L3.56 18.88ZM1.28 17.48L0.889566 17.7923L1.01062 17.9437L1.20202 17.9739L1.28 17.48ZM1.04 16.92L0.542482 16.9698L0.545445 16.9994L0.551907 17.0285L1.04 16.92ZM1.28 15L1.20202 14.5061L0.947858 14.5462L0.832786 14.7764L1.28 15ZM3.56 13.64L3.97379 13.9208L3.97823 13.914L3.56 13.64ZM5.36 2.2L4.98835 1.86552L4.98772 1.86623L5.36 2.2ZM9.2 1.36L8.84645 1.71355L8.85684 1.72394L8.86782 1.73371L9.2 1.36ZM9.52 2.76L9.0268 2.6778L9.02 2.71862V2.76H9.52ZM9.44 3.2V3.7H9.80038L9.91434 3.35811L9.44 3.2ZM7.72 3.8L7.35447 3.45884L7.3536 3.45977L7.72 3.8ZM6.44 14.2L6.00055 13.9614L5.99811 13.9661L6.44 14.2ZM22.69 5.44L23.1615 5.27359L23.0438 4.94H22.69V5.44ZM22.53 5.44V4.94H22.1776L22.0591 5.27183L22.53 5.44ZM21.09 9.44L20.6198 9.26976L20.6173 9.277L21.09 9.44ZM19.41 14.24L18.9388 14.0728L18.9372 14.0772L19.41 14.24ZM17.81 18.8L17.3392 18.6312L17.3357 18.6419L17.81 18.8ZM17.61 19.4L17.1357 19.2419L17.1357 19.2419L17.61 19.4ZM17.01 21.2L16.5357 21.0419L16.5357 21.0419L17.01 21.2ZM16.25 23.48L16.7227 23.643L16.7243 23.6381L16.25 23.48ZM15.49 25.68L15.9605 25.8494L15.9625 25.8436L15.49 25.68ZM14.93 27.32L15.127 27.7796L15.3386 27.6889L15.4072 27.4691L14.93 27.32ZM14.33 27.48L14.268 26.9839L14.2297 26.9886L14.1926 26.9992L14.33 27.48ZM12.45 27.24L12.15 27.64L12.1684 27.6538L12.188 27.6658L12.45 27.24ZM12.09 25.4L12.5643 25.5581L12.5667 25.5509L12.5689 25.5437L12.09 25.4ZM12.37 24.56L12.8399 24.7309L12.8415 24.7264L12.37 24.56ZM13.53 21.24L13.0606 21.0676L13.0576 21.0761L13.53 21.24ZM15.09 16.96L15.5601 17.1302L15.5601 17.1302L15.09 16.96ZM18.65 7.44L18.1825 7.26267L18.1825 7.26267L18.65 7.44ZM20.29 3.2L20.0664 2.75279L19.8954 2.83826L19.8251 3.01598L20.29 3.2ZM21.25 2.88L21.3713 3.36507L21.3713 3.36507L21.25 2.88ZM24.09 2.96L23.9319 3.4344L23.9394 3.43679L24.09 2.96ZM25.05 3.76L24.5791 3.92817L24.5833 3.93978L24.588 3.95118L25.05 3.76ZM27.09 9.04L26.6202 9.2114L26.6232 9.21906L27.09 9.04ZM29.33 15.16L28.8581 15.3252L28.8587 15.327L29.33 15.16ZM31.45 21.32L30.9756 21.4781L30.9776 21.4838L31.45 21.32ZM33.29 26.76L33.6847 27.067L33.848 26.857L33.7651 26.6042L33.29 26.76ZM32.53 27.32L32.3377 26.8585L32.3135 26.8685L32.2906 26.8811L32.53 27.32ZM30.37 27.24L30.0355 27.6116L30.0463 27.6214L30.0577 27.6304L30.37 27.24ZM29.69 26.08L29.2162 26.2399L29.2181 26.2452L29.69 26.08ZM27.49 19.56L27.0092 19.6974L27.0125 19.7087L27.0162 19.7199L27.49 19.56ZM27.17 18.44L27.6508 18.3026L27.6481 18.2934L27.6451 18.2842L27.17 18.44ZM25.49 13.52L25.0164 13.6804L25.0188 13.6872L25.49 13.52ZM23.89 8.92L23.4165 9.08081L23.4193 9.08873L23.89 8.92ZM16.05 20.76L15.5839 20.5791L15.3196 21.26H16.05V20.76ZM17.09 18.08V17.58H16.7477L16.6239 17.8991L17.09 18.08ZM28.25 18.08L28.7363 17.9639L28.6447 17.58H28.25V18.08ZM28.89 20.76V21.26H29.5235L29.3763 20.6439L28.89 20.76ZM38.0019 12.6V12.1H37.5019V12.6H38.0019ZM41.2419 12.6H41.7419V12.1H41.2419V12.6ZM41.2419 26.92L41.3631 27.4051L41.7419 27.3104V26.92H41.2419ZM40.6419 27.12L40.7734 27.6024L40.7933 27.597L40.8127 27.5899L40.6419 27.12ZM38.4819 26.76L38.1145 27.0991L38.1213 27.1065L38.1283 27.1136L38.4819 26.76ZM41.2419 17.32L41.2357 17.82L41.7419 17.8262V17.32H41.2419ZM38.0019 17.28H37.5019V17.7739L37.9957 17.78L38.0019 17.28ZM38.4819 3.4L38.8354 3.75355L38.8354 3.75355L38.4819 3.4ZM40.6419 3.04L40.5103 3.52238L40.5103 3.52238L40.6419 3.04ZM41.2419 3.24H41.7419V2.93099L41.4655 2.79279L41.2419 3.24ZM39.7619 16.12H39.2619V16.62H39.7619V16.12ZM39.7619 13.4V12.9H39.2619V13.4H39.7619ZM51.8019 13.4L52.2019 13.1L52.0519 12.9H51.8019V13.4ZM52.0419 13.92L52.5162 13.7619L52.5162 13.7619L52.0419 13.92ZM51.8419 15.72L52.2323 16.0323L52.2323 16.0323L51.8419 15.72ZM39.7619 24.52V24.02H39.2619V24.52H39.7619ZM53.2419 24.52L53.6419 24.22L53.4919 24.02H53.2419V24.52ZM53.4819 25.04L53.0075 25.1981L53.0105 25.2069L53.0137 25.2156L53.4819 25.04ZM53.2819 26.84L52.8914 26.5277L52.8914 26.5277L53.2819 26.84ZM39.7619 5.68H39.2619V6.18H39.7619V5.68ZM53.0419 2.92L53.4419 2.62L53.2919 2.42H53.0419V2.92ZM53.2819 3.44L52.8075 3.59811L52.8075 3.59811L53.2819 3.44ZM53.0819 5.28L53.4723 5.59235L53.4795 5.58338L53.4862 5.57409L53.0819 5.28ZM59.2519 13.04V12.54H58.7519V13.04H59.2519ZM62.5319 13.04H63.0319V12.54H62.5319V13.04ZM62.5319 26.92L62.6349 27.4093L63.0319 27.3257V26.92H62.5319ZM59.7319 26.76L59.3645 27.0991L59.378 27.1138L59.3927 27.1274L59.7319 26.76ZM61.0119 24.44V23.94H60.5119V24.44H61.0119ZM74.0119 24.44L74.3242 24.0496L74.1873 23.94H74.0119V24.44ZM74.3319 24.96L74.8062 24.8019L74.8062 24.8019L74.3319 24.96ZM74.0919 26.84L73.7202 26.5055L73.7202 26.5055L74.0919 26.84ZM62.5319 15.44V15.94H63.0319V15.44H62.5319ZM59.2519 15.44H58.7519V15.94H59.2519V15.44ZM59.2519 3L59.0662 2.53576L58.7519 2.66149V3H59.2519ZM59.8519 2.84L59.9499 3.33029L59.9668 3.32691L59.9834 3.32238L59.8519 2.84ZM62.0919 3.08L61.7753 3.46698L61.7863 3.47599L61.7978 3.48437L62.0919 3.08ZM105.6 16.24L105.829 16.6845L106.692 16.24L105.829 15.7955L105.6 16.24ZM103.52 14.2L103.075 14.4287L103.079 14.4364L103.084 14.4439L103.52 14.2ZM102.24 3.8L101.862 4.12747L101.874 4.14094L101.886 4.15355L102.24 3.8ZM100.56 3.2L100.067 3.2822L100.136 3.7H100.56V3.2ZM100.48 2.76L99.9868 2.8422L99.9881 2.85015L99.9897 2.85806L100.48 2.76ZM100.8 1.36L101.132 1.73371L101.143 1.72394L101.154 1.71355L100.8 1.36ZM104.6 2.2L104.222 2.52746L104.228 2.53419L104.234 2.54071L104.6 2.2ZM106.44 13.64L106.022 13.914L106.026 13.9208L106.44 13.64ZM108.72 15L109.167 14.7764L109.052 14.5462L108.798 14.5061L108.72 15ZM108.92 16.92L108.43 16.8219L108.425 16.8432L108.423 16.8648L108.92 16.92ZM108.72 17.48L108.798 17.9739L108.989 17.9437L109.11 17.7923L108.72 17.48ZM106.44 18.88L106.854 19.1608L106.858 19.154L106.44 18.88ZM104.6 30.64L104.228 30.3055L104.222 30.3125L104.6 30.64ZM100.8 31.48L100.446 31.8336L100.446 31.8336L100.8 31.48ZM100.48 30.08L99.9897 29.9819L99.9881 29.9898L99.9868 29.9978L100.48 30.08ZM100.56 29.64L100.543 29.1403L100.134 29.1544L100.067 29.5578L100.56 29.64ZM102.24 29L101.886 28.6464L101.874 28.6591L101.862 28.6725L102.24 29ZM103.52 18.32L103.081 18.0814L103.078 18.0861L103.52 18.32ZM4.17102 16.6845C4.95266 17.0872 5.55996 17.7021 5.99536 18.5487L6.88464 18.0913C6.36004 17.0713 5.60734 16.2995 4.62898 15.7955L4.17102 16.6845ZM6.00353 18.5639C6.45619 19.3739 6.7 20.4426 6.7 21.8H7.7C7.7 20.3308 7.43714 19.0794 6.87647 18.0761L6.00353 18.5639ZM6.7 21.8V27.04H7.7V21.8H6.7ZM6.7 27.04C6.7 28.0054 6.87338 28.8231 7.3536 29.3402L8.0864 28.6598C7.87328 28.4303 7.7 27.9412 7.7 27.04H6.7ZM7.35447 29.3412C7.8502 29.8723 8.57241 30.1104 9.42277 30.1397L9.45723 29.1403C8.76093 29.1163 8.33647 28.9277 8.08553 28.6588L7.35447 29.3412ZM8.96566 29.7981C9.00629 29.92 9.02 30.0125 9.02 30.08H10.02C10.02 29.8809 9.98038 29.68 9.91434 29.4819L8.96566 29.7981ZM9.0268 30.1622C9.04901 30.2954 9.06 30.4279 9.06 30.56H10.06C10.06 30.3721 10.0443 30.1846 10.0132 29.9978L9.0268 30.1622ZM9.06 30.56C9.06 30.8153 8.98286 30.99 8.84645 31.1264L9.55355 31.8336C9.89714 31.49 10.06 31.0514 10.06 30.56H9.06ZM8.84645 31.1264C8.73329 31.2396 8.52293 31.34 8.12 31.34V32.34C8.67707 32.34 9.18671 32.2004 9.55355 31.8336L8.84645 31.1264ZM8.12 31.34C7.13521 31.34 6.35254 30.9954 5.73165 30.3055L4.98835 30.9745C5.80746 31.8846 6.86479 32.34 8.12 32.34V31.34ZM5.73785 30.3125C5.155 29.64 4.82 28.5791 4.82 27.04H3.82C3.82 28.7009 4.17833 30.04 4.98216 30.9675L5.73785 30.3125ZM4.82 27.04V22.12H3.82V27.04H4.82ZM4.82 22.12C4.82 20.6589 4.56019 19.4635 3.97374 18.5993L3.14626 19.1608C3.57315 19.7898 3.82 20.7544 3.82 22.12H4.82ZM3.97823 18.606C3.38529 17.701 2.49366 17.1654 1.35798 16.9861L1.20202 17.9739C2.09301 18.1146 2.72138 18.5124 3.14177 19.154L3.97823 18.606ZM1.67043 17.1677C1.62772 17.1143 1.57163 17.0075 1.52809 16.8115L0.551907 17.0285C0.615036 17.3125 0.718947 17.5791 0.889566 17.7923L1.67043 17.1677ZM1.53752 16.8702C1.51186 16.6137 1.5 16.4046 1.5 16.24H0.5C0.5 16.4487 0.514807 16.693 0.542482 16.9698L1.53752 16.8702ZM1.5 16.24C1.5 16.0992 1.52034 15.9234 1.56809 15.7085L0.591906 15.4915C0.532994 15.7566 0.5 16.0075 0.5 16.24H1.5ZM1.56809 15.7085C1.61561 15.4946 1.67087 15.3363 1.72721 15.2236L0.832786 14.7764C0.729134 14.9837 0.651057 15.2254 0.591906 15.4915L1.56809 15.7085ZM1.35798 15.4939C2.48733 15.3156 3.37847 14.798 3.97374 13.9208L3.14626 13.3592C2.72819 13.9753 2.09934 14.3644 1.20202 14.5061L1.35798 15.4939ZM3.97823 13.914C4.55869 13.028 4.82 11.8384 4.82 10.4H3.82C3.82 11.7349 3.57464 12.7053 3.14177 13.366L3.97823 13.914ZM4.82 10.4V5.76H3.82V10.4H4.82ZM4.82 5.76C4.82 4.21912 5.15574 3.17684 5.73229 2.53377L4.98772 1.86623C4.17759 2.76983 3.82 4.10088 3.82 5.76H4.82ZM5.73165 2.53448C6.35254 1.8446 7.13521 1.5 8.12 1.5V0.5C6.86479 0.5 5.80746 0.9554 4.98835 1.86552L5.73165 2.53448ZM8.12 1.5C8.52293 1.5 8.73329 1.60039 8.84645 1.71355L9.55355 1.00645C9.18671 0.639607 8.67707 0.5 8.12 0.5V1.5ZM8.86782 1.73371C8.97574 1.82963 9.06 1.985 9.06 2.28H10.06C10.06 1.775 9.90426 1.31703 9.53218 0.986295L8.86782 1.73371ZM9.06 2.28C9.06 2.41208 9.04901 2.54459 9.0268 2.6778L10.0132 2.8422C10.0443 2.65541 10.06 2.46792 10.06 2.28H9.06ZM9.02 2.76C9.02 2.82752 9.00629 2.92 8.96566 3.04189L9.91434 3.35811C9.98038 3.16 10.02 2.95914 10.02 2.76H9.02ZM9.44 2.7C8.58665 2.7 7.85604 2.92145 7.35447 3.45884L8.08553 4.14116C8.33063 3.87855 8.74669 3.7 9.44 3.7V2.7ZM7.3536 3.45977C6.8717 3.97874 6.7 4.81249 6.7 5.8H7.7C7.7 4.86751 7.87496 4.36792 8.0864 4.14023L7.3536 3.45977ZM6.7 5.8V10.68H7.7V5.8H6.7ZM6.7 10.68C6.7 12.0365 6.45651 13.1216 6.00057 13.9615L6.87943 14.4385C7.43683 13.4118 7.7 12.1501 7.7 10.68H6.7ZM5.99811 13.9661C5.56406 14.7859 4.95676 15.3907 4.17102 15.7955L4.62898 16.6845C5.60324 16.1826 6.35594 15.4274 6.88189 14.4339L5.99811 13.9661ZM22.69 4.94H22.53V5.94H22.69V4.94ZM22.0591 5.27183C21.6594 6.39094 21.1797 7.72356 20.6199 9.26978L21.5601 9.61022C22.1203 8.06311 22.6006 6.72906 23.0009 5.60817L22.0591 5.27183ZM20.6173 9.277C20.0845 10.8222 19.525 12.4208 18.9388 14.0728L19.8812 14.4072C20.4683 12.7526 21.0288 11.1512 21.5627 9.60299L20.6173 9.277ZM18.9372 14.0772C18.3778 15.7022 17.8452 17.2202 17.3393 18.6313L18.2807 18.9687C18.7881 17.5532 19.3222 16.0311 19.8828 14.4028L18.9372 14.0772ZM17.3357 18.6419L17.1357 19.2419L18.0843 19.5581L18.2843 18.9581L17.3357 18.6419ZM17.1357 19.2419C16.9757 19.7219 16.7757 20.3219 16.5357 21.0419L17.4843 21.3581C17.7243 20.6381 17.9243 20.0381 18.0843 19.5581L17.1357 19.2419ZM16.5357 21.0419C16.2957 21.7619 16.0423 22.5219 15.7757 23.3219L16.7243 23.6381C16.991 22.8381 17.2443 22.0781 17.4843 21.3581L16.5357 21.0419ZM15.7773 23.317C15.5107 24.0902 15.2574 24.8233 15.0175 25.5164L15.9625 25.8436C16.2026 25.15 16.456 24.4165 16.7227 23.643L15.7773 23.317ZM15.0196 25.5106C14.7784 26.1806 14.5891 26.7347 14.4528 27.1709L15.4072 27.4691C15.5376 27.052 15.7216 26.5127 15.9604 25.8494L15.0196 25.5106ZM14.733 26.8604C14.5919 26.9209 14.4376 26.9627 14.268 26.9839L14.392 27.9761C14.6491 27.944 14.8948 27.8791 15.127 27.7796L14.733 26.8604ZM14.1926 26.9992C14.0672 27.0351 13.878 27.06 13.61 27.06V28.06C13.9287 28.06 14.2195 28.0316 14.4674 27.9608L14.1926 26.9992ZM13.61 27.06C13.2712 27.06 12.976 26.9766 12.712 26.8142L12.188 27.6658C12.6173 27.93 13.0955 28.06 13.61 28.06V27.06ZM12.75 26.84C12.5889 26.7191 12.47 26.5156 12.47 26.12H11.47C11.47 26.7377 11.6711 27.2809 12.15 27.64L12.75 26.84ZM12.47 26.12C12.47 25.9366 12.5004 25.7499 12.5643 25.5581L11.6157 25.2419C11.5196 25.5301 11.47 25.8234 11.47 26.12H12.47ZM12.5689 25.5437C12.6459 25.2872 12.7361 25.0163 12.8399 24.7309L11.9001 24.3891C11.7906 24.6904 11.6941 24.9795 11.6111 25.2563L12.5689 25.5437ZM12.8415 24.7264C13.1619 23.8186 13.5489 22.7111 14.0024 21.4039L13.0576 21.0761C12.6045 22.3823 12.2181 23.488 11.8985 24.3936L12.8415 24.7264ZM13.9993 21.4124C14.4796 20.1049 14.9999 18.6775 15.5601 17.1302L14.6199 16.7898C14.0601 18.3358 13.5404 19.7618 13.0607 21.0676L13.9993 21.4124ZM15.5601 17.1302C16.1193 15.5857 16.7052 14.0011 17.3178 12.3764L16.3822 12.0236C15.7681 13.6522 15.1807 15.2409 14.6199 16.7898L15.5601 17.1302ZM17.3178 12.3764C17.9311 10.75 18.531 9.16367 19.1175 7.61733L18.1825 7.26267C17.5957 8.80966 16.9956 10.3966 16.3822 12.0236L17.3178 12.3764ZM19.1175 7.61733C19.7035 6.07247 20.2493 4.66141 20.7549 3.38402L19.8251 3.01598C19.3174 4.29859 18.7699 5.7142 18.1825 7.26267L19.1175 7.61733ZM20.5136 3.64721C20.6777 3.56518 20.9557 3.46897 21.3713 3.36507L21.1287 2.39493C20.691 2.50436 20.329 2.62149 20.0664 2.75279L20.5136 3.64721ZM21.3713 3.36507C21.7571 3.26862 22.1563 3.22 22.57 3.22V2.22C22.077 2.22 21.5963 2.27804 21.1287 2.39493L21.3713 3.36507ZM22.57 3.22C23.0525 3.22 23.5056 3.29224 23.9319 3.43434L24.2481 2.48566C23.7144 2.30776 23.1541 2.22 22.57 2.22V3.22ZM23.9394 3.43679C24.3518 3.567 24.5151 3.74897 24.5791 3.92817L25.5209 3.59183C25.3182 3.02436 24.8416 2.673 24.2406 2.48321L23.9394 3.43679ZM24.588 3.95118C25.2247 5.4899 25.9021 7.24311 26.6203 9.21138L27.5597 8.86862C26.8379 6.89022 26.1553 5.12343 25.512 3.56882L24.588 3.95118ZM26.6232 9.21906C27.3679 11.1608 28.1129 13.1961 28.8581 15.3252L29.8019 14.9948C29.0538 12.8572 28.3054 10.8126 27.5568 8.86094L26.6232 9.21906ZM28.8587 15.327C29.6044 17.4309 30.31 19.4813 30.9757 21.4781L31.9243 21.1619C31.2566 19.1587 30.5489 17.1024 29.8013 14.993L28.8587 15.327ZM30.9776 21.4838C31.6702 23.4817 32.2826 25.2923 32.8149 26.9158L33.7651 26.6042C33.2307 24.9743 32.6165 23.1583 31.9224 21.1562L30.9776 21.4838ZM32.8953 26.453C32.7687 26.6158 32.5894 26.7536 32.3377 26.8585L32.7223 27.7815C33.1106 27.6197 33.438 27.3842 33.6847 27.067L32.8953 26.453ZM32.2906 26.8811C32.079 26.9965 31.8297 27.06 31.53 27.06V28.06C31.977 28.06 32.3944 27.9635 32.7694 27.7589L32.2906 26.8811ZM31.53 27.06C31.084 27.06 30.8264 26.9648 30.6823 26.8496L30.0577 27.6304C30.4469 27.9418 30.9626 28.06 31.53 28.06V27.06ZM30.7045 26.8684C30.5262 26.7079 30.3353 26.4101 30.1619 25.9148L29.2181 26.2452C29.4181 26.8166 29.6805 27.2921 30.0355 27.6116L30.7045 26.8684ZM30.1638 25.9201L27.9638 19.4001L27.0162 19.7199L29.2162 26.2399L30.1638 25.9201ZM27.9708 19.4226L27.6508 18.3026L26.6892 18.5774L27.0092 19.6974L27.9708 19.4226ZM27.6451 18.2842C27.1105 16.6536 26.5492 15.0098 25.9612 13.3528L25.0188 13.6872C25.6041 15.3368 26.1628 16.973 26.6949 18.5958L27.6451 18.2842ZM25.9636 13.3596C25.4028 11.7039 24.8685 10.1678 24.3607 8.75127L23.4193 9.08873C23.9249 10.4989 24.4572 12.0294 25.0164 13.6804L25.9636 13.3596ZM24.3634 8.75921C23.8831 7.3449 23.4824 6.18285 23.1615 5.27359L22.2185 5.60641C22.5376 6.51049 22.9369 7.66843 23.4166 9.08079L24.3634 8.75921ZM16.5161 20.9409L17.5561 18.2609L16.6239 17.8991L15.5839 20.5791L16.5161 20.9409ZM17.09 18.58H28.25V17.58H17.09V18.58ZM27.7637 18.1961L28.4037 20.8761L29.3763 20.6439L28.7363 17.9639L27.7637 18.1961ZM28.89 20.26H16.05V21.26H28.89V20.26ZM38.0019 13.1H41.2419V12.1H38.0019V13.1ZM40.7419 12.6V26.92H41.7419V12.6H40.7419ZM41.1206 26.4349C40.9849 26.4689 40.7613 26.5446 40.471 26.6501L40.8127 27.5899C41.1092 27.4821 41.2855 27.4245 41.3631 27.4051L41.1206 26.4349ZM40.5103 26.6376C40.2583 26.7064 40.0092 26.74 39.7619 26.74V27.74C40.1013 27.74 40.4388 27.6936 40.7734 27.6024L40.5103 26.6376ZM39.7619 26.74C39.3357 26.74 39.0451 26.6161 38.8354 26.4064L38.1283 27.1136C38.5587 27.5439 39.1214 27.74 39.7619 27.74V26.74ZM38.8493 26.4209C38.6212 26.1738 38.5019 25.8711 38.5019 25.48H37.5019C37.5019 26.1022 37.7026 26.6529 38.1145 27.0991L38.8493 26.4209ZM38.5019 25.48V12.6H37.5019V25.48H38.5019ZM41.248 16.82L38.008 16.78L37.9957 17.78L41.2357 17.82L41.248 16.82ZM38.5019 17.28V4.68H37.5019V17.28H38.5019ZM38.5019 4.68C38.5019 4.25379 38.6258 3.96318 38.8354 3.75355L38.1283 3.04645C37.698 3.47681 37.5019 4.03954 37.5019 4.68H38.5019ZM38.8354 3.75355C39.0451 3.54392 39.3357 3.42 39.7619 3.42V2.42C39.1214 2.42 38.5587 2.61608 38.1283 3.04645L38.8354 3.75355ZM39.7619 3.42C40.0092 3.42 40.2583 3.45365 40.5103 3.52238L40.7734 2.55762C40.4388 2.46635 40.1013 2.42 39.7619 2.42V3.42ZM40.5103 3.52238C40.8059 3.60299 40.9613 3.65872 41.0183 3.68721L41.4655 2.79279C41.3091 2.71461 41.0645 2.63701 40.7734 2.55762L40.5103 3.52238ZM40.7419 3.24V17.32H41.7419V3.24H40.7419ZM40.2619 16.12V13.4H39.2619V16.12H40.2619ZM39.7619 13.9H51.8019V12.9H39.7619V13.9ZM51.4019 13.7C51.4324 13.7408 51.4922 13.852 51.5675 14.0781L52.5162 13.7619C52.4316 13.508 52.3313 13.2726 52.2019 13.1L51.4019 13.7ZM51.5675 14.0781C51.6296 14.2644 51.6619 14.4641 51.6619 14.68H52.6619C52.6619 14.3625 52.6141 14.0556 52.5162 13.7619L51.5675 14.0781ZM51.6619 14.68C51.6619 15.0221 51.5776 15.2499 51.4514 15.4077L52.2323 16.0323C52.5328 15.6568 52.6619 15.1912 52.6619 14.68H51.6619ZM51.4514 15.4077C51.3498 15.5347 51.1991 15.62 50.9219 15.62V16.62C51.4446 16.62 51.9073 16.4386 52.2323 16.0323L51.4514 15.4077ZM50.9219 15.62H39.7619V16.62H50.9219V15.62ZM40.2619 27.24V24.52H39.2619V27.24H40.2619ZM39.7619 25.02H53.2419V24.02H39.7619V25.02ZM52.8419 24.82C52.8724 24.8608 52.9322 24.972 53.0075 25.1981L53.9562 24.8819C53.8716 24.628 53.7713 24.3926 53.6419 24.22L52.8419 24.82ZM53.0137 25.2156C53.0676 25.3592 53.1019 25.5502 53.1019 25.8H54.1019C54.1019 25.4631 54.0562 25.1475 53.95 24.8644L53.0137 25.2156ZM53.1019 25.8C53.1019 26.1421 53.0176 26.3699 52.8914 26.5277L53.6723 27.1523C53.9728 26.7768 54.1019 26.3112 54.1019 25.8H53.1019ZM52.8914 26.5277C52.7898 26.6547 52.6391 26.74 52.3619 26.74V27.74C52.8846 27.74 53.3473 27.5586 53.6723 27.1523L52.8914 26.5277ZM52.3619 26.74H39.7619V27.74H52.3619V26.74ZM40.2619 5.68V2.92H39.2619V5.68H40.2619ZM39.7619 3.42H53.0419V2.42H39.7619V3.42ZM52.6419 3.22C52.6724 3.26075 52.7321 3.37195 52.8075 3.59811L53.7562 3.28189C53.6716 3.02805 53.5713 2.79259 53.4419 2.62L52.6419 3.22ZM52.8075 3.59811C52.8696 3.78443 52.9019 3.98415 52.9019 4.2H53.9019C53.9019 3.88251 53.8541 3.57557 53.7562 3.28188L52.8075 3.59811ZM52.9019 4.2C52.9019 4.54021 52.8183 4.79237 52.6775 4.98591L53.4862 5.57409C53.7721 5.18097 53.9019 4.71313 53.9019 4.2H52.9019ZM52.6914 4.96765C52.5898 5.09469 52.4391 5.18 52.1619 5.18V6.18C52.6846 6.18 53.1473 5.99864 53.4723 5.59235L52.6914 4.96765ZM52.1619 5.18H39.7619V6.18H52.1619V5.18ZM59.2519 13.54H62.5319V12.54H59.2519V13.54ZM62.0319 13.04V26.92H63.0319V13.04H62.0319ZM62.4289 26.4307L60.9089 26.7507L61.1149 27.7293L62.6349 27.4093L62.4289 26.4307ZM61.0119 26.74C60.6207 26.74 60.3181 26.6207 60.071 26.3926L59.3927 27.1274C59.839 27.5393 60.3897 27.74 61.0119 27.74V26.74ZM60.0993 26.4209C59.8712 26.1738 59.7519 25.8711 59.7519 25.48H58.7519C58.7519 26.1022 58.9526 26.6529 59.3645 27.0991L60.0993 26.4209ZM59.7519 25.48V13.04H58.7519V25.48H59.7519ZM61.5119 27.24V24.44H60.5119V27.24H61.5119ZM61.0119 24.94H74.0119V23.94H61.0119V24.94ZM73.6995 24.8304C73.7296 24.8545 73.7942 24.9282 73.8575 25.1181L74.8062 24.8019C74.7095 24.5118 74.5609 24.2389 74.3242 24.0496L73.6995 24.8304ZM73.8575 25.1181C73.9181 25.2997 73.9519 25.512 73.9519 25.76H74.9519C74.9519 25.4213 74.9057 25.1003 74.8062 24.8019L73.8575 25.1181ZM73.9519 25.76C73.9519 26.1235 73.8575 26.353 73.7202 26.5055L74.4635 27.1745C74.8062 26.7937 74.9519 26.3031 74.9519 25.76H73.9519ZM73.7202 26.5055C73.5865 26.6541 73.4083 26.74 73.1319 26.74V27.74C73.6555 27.74 74.1172 27.5593 74.4635 27.1745L73.7202 26.5055ZM73.1319 26.74H61.0119V27.74H73.1319V26.74ZM62.5319 14.94H59.2519V15.94H62.5319V14.94ZM59.7519 15.44V3H58.7519V15.44H59.7519ZM59.4376 3.46424C59.5277 3.42821 59.6917 3.38193 59.9499 3.33029L59.7538 2.34971C59.4787 2.40474 59.2428 2.46513 59.0662 2.53576L59.4376 3.46424ZM59.9834 3.32238C60.2317 3.25467 60.494 3.22 60.7719 3.22V2.22C60.4098 2.22 60.0587 2.26533 59.7203 2.35762L59.9834 3.32238ZM60.7719 3.22C61.3031 3.22 61.6087 3.33069 61.7753 3.46698L62.4085 2.69302C61.9884 2.34931 61.414 2.22 60.7719 2.22V3.22ZM61.7978 3.48437C61.9089 3.56518 62.0319 3.74757 62.0319 4.2H63.0319C63.0319 3.58576 62.8615 3.02149 62.386 2.67563L61.7978 3.48437ZM62.0319 4.2V15.44H63.0319V4.2H62.0319ZM105.829 15.7955C105.041 15.3895 104.418 14.7814 103.956 13.9561L103.084 14.4439C103.636 15.4319 104.399 16.1839 105.371 16.6845L105.829 15.7955ZM103.965 13.9713C103.531 13.1289 103.3 12.0401 103.3 10.68H102.3C102.3 12.1466 102.549 13.4044 103.075 14.4287L103.965 13.9713ZM103.3 10.68V5.8H102.3V10.68H103.3ZM103.3 5.8C103.3 4.80601 103.113 3.96566 102.594 3.44645L101.886 4.15355C102.114 4.38101 102.3 4.87399 102.3 5.8H103.3ZM102.618 3.47253C102.139 2.92017 101.41 2.7 100.56 2.7V3.7C101.257 3.7 101.648 3.87983 101.862 4.12747L102.618 3.47253ZM101.053 3.1178C101.026 2.95347 100.998 2.80143 100.97 2.66194L99.9897 2.85806C100.015 2.98524 100.041 3.12653 100.067 3.2822L101.053 3.1178ZM100.973 2.6778C100.951 2.5446 100.94 2.4121 100.94 2.28H99.94C99.94 2.4679 99.9557 2.65539 99.9868 2.8422L100.973 2.6778ZM100.94 2.28C100.94 1.985 101.024 1.82963 101.132 1.73371L100.468 0.986295C100.096 1.31703 99.94 1.775 99.94 2.28H100.94ZM101.154 1.71355C101.267 1.60039 101.477 1.5 101.88 1.5V0.5C101.323 0.5 100.813 0.639606 100.446 1.00645L101.154 1.71355ZM101.88 1.5C102.865 1.5 103.63 1.84407 104.222 2.52746L104.978 1.87253C104.183 0.955932 103.135 0.5 101.88 0.5V1.5ZM104.234 2.54071C104.833 3.18374 105.18 4.2231 105.18 5.76H106.18C106.18 4.0969 105.807 2.76293 104.966 1.85929L104.234 2.54071ZM105.18 5.76V10.4H106.18V5.76H105.18ZM105.18 10.4C105.18 11.8384 105.441 13.0281 106.022 13.914L106.858 13.366C106.425 12.7053 106.18 11.7349 106.18 10.4H105.18ZM106.026 13.9208C106.622 14.798 107.513 15.3156 108.642 15.4939L108.798 14.5061C107.901 14.3644 107.272 13.9753 106.854 13.3592L106.026 13.9208ZM108.273 15.2236C108.329 15.3363 108.384 15.4946 108.432 15.7085L109.408 15.4915C109.349 15.2254 109.271 14.9837 109.167 14.7764L108.273 15.2236ZM108.432 15.7085C108.48 15.9234 108.5 16.0992 108.5 16.24H109.5C109.5 16.0075 109.467 15.7566 109.408 15.4915L108.432 15.7085ZM108.5 16.24C108.5 16.3826 108.479 16.5743 108.43 16.8219L109.41 17.0181C109.467 16.7323 109.5 16.4708 109.5 16.24H108.5ZM108.423 16.8648C108.403 17.0479 108.357 17.1328 108.33 17.1677L109.11 17.7923C109.296 17.5605 109.384 17.2721 109.417 16.9752L108.423 16.8648ZM108.642 16.9861C107.506 17.1654 106.615 17.701 106.022 18.606L106.858 19.154C107.279 18.5124 107.907 18.1146 108.798 17.9739L108.642 16.9861ZM106.026 18.5993C105.44 19.4635 105.18 20.6589 105.18 22.12H106.18C106.18 20.7544 106.427 19.7898 106.854 19.1608L106.026 18.5993ZM105.18 22.12V27.04H106.18V22.12H105.18ZM105.18 27.04C105.18 28.5752 104.833 29.6332 104.228 30.3055L104.972 30.9745C105.807 30.0468 106.18 28.7048 106.18 27.04H105.18ZM104.222 30.3125C103.63 30.9959 102.865 31.34 101.88 31.34V32.34C103.135 32.34 104.183 31.8841 104.978 30.9675L104.222 30.3125ZM101.88 31.34C101.477 31.34 101.267 31.2396 101.154 31.1264L100.446 31.8336C100.813 32.2004 101.323 32.34 101.88 32.34V31.34ZM101.154 31.1264C101.017 30.99 100.94 30.8153 100.94 30.56H99.94C99.94 31.0514 100.103 31.49 100.446 31.8336L101.154 31.1264ZM100.94 30.56C100.94 30.4279 100.951 30.2954 100.973 30.1622L99.9868 29.9978C99.9557 30.1846 99.94 30.3721 99.94 30.56H100.94ZM100.97 30.1781C100.998 30.0386 101.026 29.8865 101.053 29.7222L100.067 29.5578C100.041 29.7135 100.015 29.8548 99.9897 29.9819L100.97 30.1781ZM100.577 30.1397C101.425 30.1105 102.145 29.8731 102.618 29.3275L101.862 28.6725C101.642 28.9269 101.242 29.1162 100.543 29.1403L100.577 30.1397ZM102.594 29.3536C103.111 28.8363 103.3 28.0122 103.3 27.04H102.3C102.3 27.9345 102.116 28.4171 101.886 28.6464L102.594 29.3536ZM103.3 27.04V21.8H102.3V27.04H103.3ZM103.3 21.8C103.3 20.439 103.532 19.3665 103.962 18.5539L103.078 18.0861C102.548 19.0868 102.3 20.3343 102.3 21.8H103.3ZM103.959 18.5585C104.422 17.7067 105.045 17.0885 105.829 16.6845L105.371 15.7955C104.395 16.2982 103.631 17.0667 103.081 18.0815L103.959 18.5585Z" fill="#333333" mask="url(#path-1-outside-1_12_49)"/>
<path d="M91.7571 23.7863C93.163 23.7863 97.3809 21.7923 98.1843 21.194C98.827 20.7155 100.264 19.5495 101 19.1507C101 19.0842 100.836 19.2 99.3894 19.2C97.9433 19.2 96.8764 17.7562 96.073 17.3828C95.1856 16.9705 94.3715 15.7652 93.3139 15.0257C91.7917 13.9614 90.1731 12.8908 89.146 12.4202C87.0572 11.3035 80.7007 11.2936 78.0992 10.8249C75.7737 9.72213 75.2873 6.63741 75.2873 5.44097C75.2873 3.52668 74.7517 3.18104 74.4839 3.24751C73.5198 3.24751 74.2161 5.77332 74.6847 7.03622C76.1904 12.7164 75.6205 12.3458 75.4881 14.24C75.4439 14.8727 75.287 15.758 75.4881 17.2059C76.2915 22.9887 79.9069 24.7833 84.3256 25.1822C88.7443 25.581 90.3511 23.7863 91.7571 23.7863Z" fill="#1B4D3E" stroke="#333333" stroke-width="0.5"/>
</svg>
